<svg width="31" height="29" viewBox="0 0 31 29" fill="none" xmlns="http://www.w3.org/2000/svg">
<g clip-path="url(#clip0_366_5707)">
<path fill-rule="evenodd" clip-rule="evenodd" d="M2.25 10.5C2.05109 10.5 1.86032 10.579 1.71967 10.7197C1.57902 10.8603 1.5 11.0511 1.5 11.25V14.25H9C9.19891 14.25 9.38968 14.329 9.53033 14.4697C9.67098 14.6103 9.75 14.8011 9.75 15C9.75 15.3795 9.87 15.966 10.209 16.437C10.5195 16.869 11.0445 17.25 12 17.25C12.9555 17.25 13.4805 16.869 13.791 16.437C14.13 15.966 14.25 15.3795 14.25 15C14.25 14.8011 14.329 14.6103 14.4697 14.4697C14.6103 14.329 14.8011 14.25 15 14.25H22.5V11.25C22.5 11.0511 22.421 10.8603 22.2803 10.7197C22.1397 10.579 21.9489 10.5 21.75 10.5H2.25ZM22.5 15.75H15.6735C15.5659 16.3124 15.3394 16.8453 15.009 17.313C14.4195 18.132 13.4445 18.75 12 18.75C10.5555 18.75 9.5805 18.132 8.991 17.313C8.66067 16.8453 8.43411 16.3124 8.3265 15.75H1.5V24.75C1.5 24.9489 1.57902 25.1397 1.71967 25.2803C1.86032 25.421 2.05109 25.5 2.25 25.5H21.75C21.9489 25.5 22.1397 25.421 22.2803 25.2803C22.421 25.1397 22.5 24.9489 22.5 24.75V15.75ZM0 11.25C0 10.6533 0.237053 10.081 0.65901 9.65901C1.08097 9.23705 1.65326 9 2.25 9H21.75C22.3467 9 22.919 9.23705 23.341 9.65901C23.7629 10.081 24 10.6533 24 11.25V24.75C24 25.3467 23.7629 25.919 23.341 26.341C22.919 26.7629 22.3467 27 21.75 27H2.25C1.65326 27 1.08097 26.7629 0.65901 26.341C0.237053 25.919 0 25.3467 0 24.75L0 11.25Z" fill="#333333"/>
</g>
<path d="M30.2734 7.54492V9.02832H23.4512V7.54492H30.2734ZM27.6621 4.75586V12.002H26.0693V4.75586H27.6621Z" fill="black" fill-opacity="0.87"/>
<defs>
<clipPath id="clip0_366_5707">
<rect width="24" height="23" fill="white" transform="translate(0 6)"/>
</clipPath>
</defs>
</svg>
