<svg width="24" height="24" viewBox="0 0 24 24" fill="none" xmlns="http://www.w3.org/2000/svg">
<g clip-path="url(#clip0_407_3663)">
<path d="M13.5 1.5H6C5.20435 1.5 4.44129 1.81607 3.87868 2.37868C3.31607 2.94129 3 3.70435 3 4.5V19.5C3 20.2956 3.31607 21.0587 3.87868 21.6213C4.44129 22.1839 5.20435 22.5 6 22.5H18C18.7956 22.5 19.5587 22.1839 20.1213 21.6213C20.6839 21.0587 21 20.2956 21 19.5V12H19.5V19.5C19.5 19.8978 19.342 20.2794 19.0607 20.5607C18.7794 20.842 18.3978 21 18 21H6C5.60218 21 5.22064 20.842 4.93934 20.5607C4.65804 20.2794 4.5 19.8978 4.5 19.5V4.5C4.5 4.10218 4.65804 3.72064 4.93934 3.43934C5.22064 3.15804 5.60218 3 6 3H13.5V1.5Z" fill="black"/>
<path fill-rule="evenodd" clip-rule="evenodd" d="M23.781 3.21888C23.8508 3.28854 23.9062 3.37131 23.944 3.46243C23.9818 3.55354 24.0013 3.65122 24.0013 3.74988C24.0013 3.84853 23.9818 3.94621 23.944 4.03733C23.9062 4.12844 23.8508 4.21121 23.781 4.28088L19.281 8.78088C19.2113 8.85072 19.1285 8.90613 19.0374 8.94394C18.9463 8.98175 18.8486 9.00122 18.75 9.00122C18.6513 9.00122 18.5536 8.98175 18.4625 8.94394C18.3714 8.90613 18.2886 8.85072 18.219 8.78088L15.969 6.53088C15.8992 6.46114 15.8439 6.37836 15.8062 6.28725C15.7684 6.19614 15.749 6.09849 15.749 5.99988C15.749 5.90126 15.7684 5.80361 15.8062 5.7125C15.8439 5.62139 15.8992 5.53861 15.969 5.46888C16.0387 5.39914 16.1215 5.34383 16.2126 5.30609C16.3037 5.26835 16.4014 5.24893 16.5 5.24893C16.5986 5.24893 16.6962 5.26835 16.7873 5.30609C16.8785 5.34383 16.9612 5.39914 17.031 5.46888L18.75 7.18938L22.719 3.21888C22.7886 3.14903 22.8714 3.09362 22.9625 3.05581C23.0536 3.018 23.1513 2.99854 23.25 2.99854C23.3486 2.99854 23.4463 3.018 23.5374 3.05581C23.6285 3.09362 23.7113 3.14903 23.781 3.21888V3.21888Z" fill="black"/>
</g>
<defs>
<clipPath id="clip0_407_3663">
<rect width="24" height="24" fill="white"/>
</clipPath>
</defs>
</svg>
