<svg width="24" height="24" viewBox="0 0 24 24" fill="none" xmlns="http://www.w3.org/2000/svg">
<g clip-path="url(#clip0_356_5441)">
<path fill-rule="evenodd" clip-rule="evenodd" d="M21.75 4.5H2.25C2.05109 4.5 1.86032 4.57902 1.71967 4.71967C1.57902 4.86032 1.5 5.05109 1.5 5.25V18.75C1.5 18.9489 1.57902 19.1397 1.71967 19.2803C1.86032 19.421 2.05109 19.5 2.25 19.5H21.75C21.9489 19.5 22.1397 19.421 22.2803 19.2803C22.421 19.1397 22.5 18.9489 22.5 18.75V5.25C22.5 5.05109 22.421 4.86032 22.2803 4.71967C22.1397 4.57902 21.9489 4.5 21.75 4.5ZM2.25 3C1.65326 3 1.08097 3.23705 0.65901 3.65901C0.237053 4.08097 0 4.65326 0 5.25L0 18.75C0 19.3467 0.237053 19.919 0.65901 20.341C1.08097 20.7629 1.65326 21 2.25 21H21.75C22.3467 21 22.919 20.7629 23.341 20.341C23.7629 19.919 24 19.3467 24 18.75V5.25C24 4.65326 23.7629 4.08097 23.341 3.65901C22.919 3.23705 22.3467 3 21.75 3H2.25Z" fill="black"/>
<path fill-rule="evenodd" clip-rule="evenodd" d="M10.5001 8.25006C10.5001 8.05115 10.5791 7.86038 10.7197 7.71973C10.8604 7.57908 11.0512 7.50006 11.2501 7.50006H18.7501C18.949 7.50006 19.1397 7.57908 19.2804 7.71973C19.4211 7.86038 19.5001 8.05115 19.5001 8.25006C19.5001 8.44897 19.4211 8.63974 19.2804 8.78039C19.1397 8.92104 18.949 9.00006 18.7501 9.00006H11.2501C11.0512 9.00006 10.8604 8.92104 10.7197 8.78039C10.5791 8.63974 10.5001 8.44897 10.5001 8.25006ZM8.25607 6.96906C8.32591 7.03873 8.38133 7.12149 8.41914 7.21261C8.45695 7.30373 8.47641 7.40141 8.47641 7.50006C8.47641 7.59871 8.45695 7.69639 8.41914 7.78751C8.38133 7.87863 8.32591 7.96139 8.25607 8.03106L6.00607 10.2811C5.9364 10.3509 5.85364 10.4063 5.76252 10.4441C5.6714 10.4819 5.57372 10.5014 5.47507 10.5014C5.37642 10.5014 5.27874 10.4819 5.18762 10.4441C5.0965 10.4063 5.01374 10.3509 4.94407 10.2811L4.19407 9.53106C4.12434 9.46133 4.06902 9.37854 4.03128 9.28743C3.99354 9.19633 3.97412 9.09867 3.97412 9.00006C3.97412 8.8009 4.05324 8.60989 4.19407 8.46906C4.3349 8.32823 4.52591 8.24911 4.72507 8.24911C4.92423 8.24911 5.11524 8.32823 5.25607 8.46906L5.47507 8.68956L7.19407 6.96906C7.26374 6.89921 7.3465 6.8438 7.43762 6.80599C7.52874 6.76818 7.62642 6.74872 7.72507 6.74872C7.82372 6.74872 7.9214 6.76818 8.01252 6.80599C8.10364 6.8438 8.1864 6.89921 8.25607 6.96906ZM10.5001 14.2501C10.5001 14.0511 10.5791 13.8604 10.7197 13.7197C10.8604 13.5791 11.0512 13.5001 11.2501 13.5001H18.7501C18.949 13.5001 19.1397 13.5791 19.2804 13.7197C19.4211 13.8604 19.5001 14.0511 19.5001 14.2501C19.5001 14.449 19.4211 14.6397 19.2804 14.7804C19.1397 14.921 18.949 15.0001 18.7501 15.0001H11.2501C11.0512 15.0001 10.8604 14.921 10.7197 14.7804C10.5791 14.6397 10.5001 14.449 10.5001 14.2501ZM8.25607 12.9691C8.32591 13.0387 8.38133 13.1215 8.41914 13.2126C8.45695 13.3037 8.47641 13.4014 8.47641 13.5001C8.47641 13.5987 8.45695 13.6964 8.41914 13.7875C8.38133 13.8786 8.32591 13.9614 8.25607 14.0311L6.00607 16.2811C5.9364 16.3509 5.85364 16.4063 5.76252 16.4441C5.6714 16.4819 5.57372 16.5014 5.47507 16.5014C5.37642 16.5014 5.27874 16.4819 5.18762 16.4441C5.0965 16.4063 5.01374 16.3509 4.94407 16.2811L4.19407 15.5311C4.12434 15.4613 4.06902 15.3785 4.03128 15.2874C3.99354 15.1963 3.97412 15.0987 3.97412 15.0001C3.97412 14.9014 3.99354 14.8038 4.03128 14.7127C4.06902 14.6216 4.12434 14.5388 4.19407 14.4691C4.2638 14.3993 4.34658 14.344 4.43769 14.3063C4.5288 14.2685 4.62645 14.2491 4.72507 14.2491C4.82368 14.2491 4.92133 14.2685 5.01244 14.3063C5.10355 14.344 5.18634 14.3993 5.25607 14.4691L5.47507 14.6896L7.19407 12.9691C7.26374 12.8992 7.3465 12.8438 7.43762 12.806C7.52874 12.7682 7.62642 12.7487 7.72507 12.7487C7.82372 12.7487 7.9214 12.7682 8.01252 12.806C8.10364 12.8438 8.1864 12.8992 8.25607 12.9691Z" fill="black"/>
</g>
<defs>
<clipPath id="clip0_356_5441">
<rect width="24" height="24" fill="white"/>
</clipPath>
</defs>
</svg>
