<svg width="24" height="18" viewBox="0 0 24 18" fill="none" xmlns="http://www.w3.org/2000/svg">
<path fill-rule="evenodd" clip-rule="evenodd" d="M2.25 1.5C2.05109 1.5 1.86032 1.57902 1.71967 1.71967C1.57902 1.86032 1.5 2.05109 1.5 2.25V5.25H9C9.19891 5.25 9.38968 5.32902 9.53033 5.46967C9.67098 5.61032 9.75 5.80109 9.75 6C9.75 6.3795 9.87 6.966 10.209 7.437C10.5195 7.869 11.0445 8.25 12 8.25C12.9555 8.25 13.4805 7.869 13.791 7.437C14.13 6.966 14.25 6.3795 14.25 6C14.25 5.80109 14.329 5.61032 14.4697 5.46967C14.6103 5.32902 14.8011 5.25 15 5.25H22.5V2.25C22.5 2.05109 22.421 1.86032 22.2803 1.71967C22.1397 1.57902 21.9489 1.5 21.75 1.5H2.25ZM22.5 6.75H15.6735C15.5659 7.31241 15.3394 7.84531 15.009 8.313C14.4195 9.132 13.4445 9.75 12 9.75C10.5555 9.75 9.5805 9.132 8.991 8.313C8.66067 7.84529 8.43411 7.31239 8.3265 6.75H1.5V15.75C1.5 15.9489 1.57902 16.1397 1.71967 16.2803C1.86032 16.421 2.05109 16.5 2.25 16.5H21.75C21.9489 16.5 22.1397 16.421 22.2803 16.2803C22.421 16.1397 22.5 15.9489 22.5 15.75V6.75ZM0 2.25C0 1.65326 0.237053 1.08097 0.65901 0.65901C1.08097 0.237053 1.65326 0 2.25 0H21.75C22.3467 0 22.919 0.237053 23.341 0.65901C23.7629 1.08097 24 1.65326 24 2.25V15.75C24 16.3467 23.7629 16.919 23.341 17.341C22.919 17.7629 22.3467 18 21.75 18H2.25C1.65326 18 1.08097 17.7629 0.65901 17.341C0.237053 16.919 0 16.3467 0 15.75L0 2.25Z" fill="#2D9CDB"/>
</svg>
